<svg viewBox="0 -14 512.00103 512" xmlns="http://www.w3.org/2000/svg"><path d="m398.136719 326.984375c61.878906-41.253906 78.597656-124.859375 37.347656-186.742187-24.988281-37.480469-67.066406-59.984376-112.117187-59.960938-4.027344 0-7.824219.839844-11.765626 1.1875-29.179687-68.171875-108.097656-99.78125-176.273437-70.601562-68.171875 29.179687-99.78125 108.097656-70.601563 176.269531 10.285157 24.035156 27.363282 44.539062 49.136719 59.003906-66.671875 15.941406-113.746093 75.484375-113.863281 144.035156 0 7.441407 6.03125 13.476563 13.472656 13.476563h137.625c-10.742187 20.832031-16.351562 43.929687-16.359375 67.367187 0 7.441407 6.03125 13.472657 13.472657 13.472657h350.316406c7.441406 0 13.472656-6.03125 13.472656-13.472657-.121094-68.550781-47.191406-128.09375-113.863281-144.035156zm33.019531-111.964844c0 59.53125-48.257812 107.789063-107.789062 107.789063-59.527344 0-107.789063-48.261719-107.789063-107.789063 0-59.53125 48.261719-107.789062 107.789063-107.789062 59.503906.0625 107.726562 48.28125 107.789062 107.789062zm-350.3125-80.84375c-.261719-59.269531 47.570312-107.53125 106.839844-107.792969 41.199218-.179687 78.863281 23.234376 96.925781 60.261719-66.695313 19.710938-107.207031 87.1875-93.253906 155.320313h-2.722657c-59.503906-.066406-107.722656-48.285156-107.789062-107.789063zm-53.144531 242.527344c6.929687-61.339844 58.78125-107.71875 120.511719-107.789063h51.84375c10.335937 23.574219 27.175781 43.71875 48.546874 58.070313-31.320312 7.464844-59.359374 24.917969-79.890624 49.71875zm134.734375 80.839844c6.933594-61.335938 58.785156-107.714844 120.515625-107.789063h80.839843c61.730469.078125 113.582032 46.453125 120.527344 107.789063zm0 0" fill="#000000" style="fill: rgb(113, 170, 235);"></path></svg>