<svg version="1.1" id="Capa_1" xmlns="http://www.w3.org/2000/svg" xmlns:xlink="http://www.w3.org/1999/xlink" x="0px" y="0px" viewBox="0 0 194.567 194.567" style="enable-background:new 0 0 194.567 194.567;" xml:space="preserve"><path d="M182.471,0.951c-1.298-0.939-2.967-1.201-4.49-0.702L69.065,35.937c-2.055,0.673-3.443,2.59-3.443,4.751v23.496v74.042 c-5.906-5.72-13.945-9.251-22.797-9.251c-18.084,0-32.796,14.712-32.796,32.796s14.712,32.796,32.796,32.796 s32.797-14.712,32.797-32.796V67.855l98.916-31.038v73.613c-5.906-5.72-13.944-9.251-22.796-9.251 c-18.084,0-32.797,14.712-32.797,32.796s14.713,32.796,32.797,32.796s32.796-14.712,32.796-32.796c0-0.529-0.015-1.054-0.04-1.576 c0.011-0.133,0.04-0.261,0.04-0.397V30.008V4.999C184.538,3.397,183.769,1.891,182.471,0.951z" fill="#000000" style="fill: rgb(113, 170, 235);"></path></svg>