<svg id="Layer_1" enable-background="new 0 0 64 64" viewBox="0 0 64 64" xmlns="http://www.w3.org/2000/svg"><g><path d="m48.1 7.4h-32.2c-4.7 0-8.6 3.8-8.6 8.6v32.1c0 4.7 3.8 8.6 8.6 8.6h32.1c4.7 0 8.6-3.8 8.6-8.6v-32.2c0-4.7-3.8-8.5-8.5-8.5zm4.5 40.7c0 2.5-2 4.6-4.6 4.6h-32.1c-2.5 0-4.6-2-4.6-4.6v-32.2c0-2.5 2-4.6 4.6-4.6h32.1c2.5 0 4.6 2 4.6 4.6z" fill="#000000" style="fill: rgb(113, 170, 235);"></path><path d="m20.6 21.9h20 2.8c2.6 0 2.6-4 0-4-4.4 0-8.9 0-13.3 0-3.2 0-6.3 0-9.5 0-2.6 0-2.6 4 0 4z" fill="#000000" style="fill: rgb(113, 170, 235);"></path><path d="m48.1 25.9c-4.5 0-8.9 0-13.4 0s-8.9 0-13.4 0c-1.9 0-3.7 0-5.6 0-2.6 0-2.6 4 0 4h28.2 4.1c2.7 0 2.7-4 .1-4z" fill="#000000" style="fill: rgb(113, 170, 235);"></path><path d="m48.1 33.9c-9.4 0-18.8 0-28.2 0-1.4 0-2.7 0-4.1 0-2.6 0-2.6 4 0 4h28.2 4.1c2.6 0 2.6-4 0-4z" fill="#000000" style="fill: rgb(113, 170, 235);"></path><path d="m48.1 42.1c-9.4 0-18.8 0-28.2 0-1.4 0-2.7 0-4.1 0-2.6 0-2.6 4 0 4h28.2 4.1c2.6 0 2.6-4 0-4z" fill="#000000" style="fill: rgb(113, 170, 235);"></path></g></svg>