<svg version="1.1" id="Capa_1" xmlns="http://www.w3.org/2000/svg" xmlns:xlink="http://www.w3.org/1999/xlink" x="0px" y="0px" viewBox="0 0 472.615 472.615" style="enable-background:new 0 0 472.615 472.615;" xml:space="preserve"><g><g><path d="M462.769,188.662h-60.201V128.46c0-5.438-4.409-9.846-9.846-9.846s-9.846,4.409-9.846,9.846v60.202h-60.202 c-5.438,0-9.846,4.409-9.846,9.846s4.409,9.846,9.846,9.846h60.202v60.201c0,5.438,4.409,9.846,9.846,9.846 s9.846-4.409,9.846-9.846v-60.201h60.201c5.438,0,9.846-4.409,9.846-9.846S468.207,188.662,462.769,188.662z" fill="#000000" style="fill: rgb(113, 170, 235);"></path></g></g><g><g><path d="M170.405,29.836c-54.382,0-98.624,44.242-98.624,98.624s44.242,98.625,98.624,98.625 c54.382,0,98.624-44.243,98.624-98.625S224.787,29.836,170.405,29.836z M170.405,207.393c-43.523,0-78.932-35.409-78.932-78.933 c0-43.523,35.409-78.932,78.932-78.932s78.932,35.409,78.932,78.932C249.337,171.984,213.928,207.393,170.405,207.393z" fill="#000000" style="fill: rgb(113, 170, 235);"></path></g></g><g><g><path d="M170.405,262.528C76.443,262.528,0,338.972,0,432.933c0,5.438,4.409,9.846,9.846,9.846h321.117 c5.438,0,9.846-4.409,9.846-9.846C340.81,338.972,264.366,262.528,170.405,262.528z M20.011,423.087 c5.087-78.533,70.598-140.866,150.394-140.866s145.307,62.334,150.394,140.866H20.011z" fill="#000000" style="fill: rgb(113, 170, 235);"></path></g></g></svg>